<?xml version="1.0" encoding="UTF-8" standalone="no"?>
<!-- Created with Inkscape (http://www.inkscape.org/) -->

<svg
   width="512.0px"
   height="512.0px"
   viewBox="0 0 512.0 512.0"
   version="1.1"
   id="SVGRoot"
   sodipodi:docname="rochen_sound_collective_logo_512.svg"
   inkscape:version="1.2.1 (9c6d41e410, 2022-07-14)"
   inkscape:export-filename="rochen_sound_collective_logo_1024.png"
   inkscape:export-xdpi="192"
   inkscape:export-ydpi="192"
   xmlns:inkscape="http://www.inkscape.org/namespaces/inkscape"
   xmlns:sodipodi="http://sodipodi.sourceforge.net/DTD/sodipodi-0.dtd"
   xmlns="http://www.w3.org/2000/svg"
   xmlns:svg="http://www.w3.org/2000/svg">
  <sodipodi:namedview
     id="namedview56093"
     pagecolor="#ffffff"
     bordercolor="#000000"
     borderopacity="0.25"
     inkscape:showpageshadow="2"
     inkscape:pageopacity="0.0"
     inkscape:pagecheckerboard="0"
     inkscape:deskcolor="#d1d1d1"
     inkscape:document-units="px"
     showgrid="true"
     inkscape:zoom="1.1893044"
     inkscape:cx="253.08912"
     inkscape:cy="184.98208"
     inkscape:window-width="1920"
     inkscape:window-height="1137"
     inkscape:window-x="-8"
     inkscape:window-y="-8"
     inkscape:window-maximized="1"
     inkscape:current-layer="layer1"
     showguides="false">
    <inkscape:grid
       type="xygrid"
       id="grid56216"
       spacingx="64"
       spacingy="64" />
  </sodipodi:namedview>
  <defs
     id="defs56088" />
  <g
     inkscape:label="Ebene 1"
     inkscape:groupmode="layer"
     id="layer1">
    <path
       id="path12432-2"
       style="display:inline;fill:#5f8dd3;stroke:none;stroke-width:3.70746"
       d="m 328.05171,23.975111 c 0,0 4.52811,30.519007 11.86842,59.284044 6.74143,26.418285 -2.60551,58.110085 -18.06812,85.644075 -0.5436,-0.03 -1.09262,-0.045 -1.64674,-0.045 -4.31953,0 -8.326,0.95774 -11.71344,3.01846 -3.29521,1.97596 -5.93306,4.86575 -7.61781,8.36169 v 0.0159 l -0.0159,0.0159 c -0.66583,1.39937 -0.5811,3.13775 -0.96479,4.673 -0.3689,-1.55317 -0.30442,-3.32184 -0.95317,-4.73111 -1.56193,-3.50373 -4.05026,-6.42695 -7.24973,-8.40444 -3.2811,-2.0638 -7.19507,-3.00293 -11.42282,-3.00293 -4.37216,0 -8.38659,0.90983 -11.72895,2.98749 l -0.0159,0.0159 h -0.0159 c -3.18663,2.00806 -5.66319,4.96982 -7.19161,8.47798 -0.002,0.004 0.002,0.008 0,0.0159 -0.29469,0.67184 -0.20545,1.53638 -0.43791,2.23963 -0.3809,-3.70342 -1.40161,-7.40014 -4.24672,-9.63654 -3.30487,-2.65697 -7.62035,-3.54153 -12.63953,-3.54153 H 229.6119 v 44.8853 h 13.45708 v -14.85194 h 0.13193 l 8.71432,14.85194 h 15.81689 l -11.61274,-18.95148 c 1.23007,-0.9135 2.17656,-2.13232 3.03006,-3.40978 0.0224,4.13644 0.67934,7.95966 2.15438,11.36081 1.52743,3.52151 4.00744,6.49519 7.20322,8.50897 h 0.0159 l 0.0159,0.0159 c 3.33473,2.07294 7.32674,2.98749 11.67087,2.98749 2.72782,0 5.32939,-0.39665 7.71469,-1.22834 -10.53714,10.16522 -21.04077,17.30534 -29.87454,19.85433 -81.98693,23.65769 -234.880921,27.05757 -234.880921,27.05757 0,0 154.212021,-0.75297 235.896091,18.54851 10.4968,2.48031 23.30864,6.42568 35.65568,14.11579 h -27.70458 v 31.92812 H 254.0859 V 293.1082 h -13.46097 v 31.92812 H 227.67932 V 293.1082 h -13.45705 v 17.57593 c -0.36667,-2.29547 -0.43565,-4.74354 -1.36392,-6.75373 -1.5615,-3.4831 -4.05109,-6.40334 -7.23421,-8.37332 -3.27871,-2.05869 -7.20023,-3.003 -11.42283,-3.003 v 0.004 c -4.37224,0 -8.37496,0.90975 -11.71733,2.98749 h -0.0159 l -0.0159,0.0159 c -1.91097,1.20412 -2.95952,3.28051 -4.30874,5.07983 l 1.65837,-3.49893 -3.91351,-1.94899 c -3.5368,-1.76837 -7.57117,-2.59218 -11.91883,-2.59218 -4.31308,0 -8.31743,0.94865 -11.70171,3.00292 -3.30819,1.97637 -5.93997,4.88706 -7.62944,8.39274 v 0.0159 c -1.63609,3.44002 -2.40241,7.32466 -2.40241,11.48867 0,4.23938 0.68083,8.14156 2.1815,11.60105 v 0.0159 l 0.0159,0.0299 c 1.56479,3.51017 4.06873,6.44607 7.27681,8.42371 3.29602,2.03177 7.23734,2.92936 11.51195,2.92936 2.15226,0 4.05956,-0.12141 5.80056,-0.41088 1.72646,-0.2812 3.41526,-0.72434 5.03718,-1.33295 l 2.88671,-1.08491 v -6.66466 c 1.50104,2.47214 3.06456,4.95178 5.50603,6.49026 l 0.0159,0.0159 h 0.0159 c 3.33473,2.07292 7.33063,2.98747 11.67476,2.98747 4.23277,0 8.15475,-0.93395 11.43827,-3.003 3.20298,-1.99609 5.7072,-4.91398 7.27687,-8.39274 0.91867,-2.01311 0.98158,-4.44573 1.34838,-6.73439 v 17.63023 h 4.46372 21.93897 2.76658 1.68559 21.93895 2.78204 26.24388 v -4.46761 -5.6494 c 1.57596,3.11277 3.7193,5.88154 6.64904,7.68755 3.29605,2.03177 7.23743,2.92936 11.51198,2.92936 2.15242,0 4.05567,-0.12141 5.79665,-0.41088 1.72653,-0.2812 3.41533,-0.72434 5.03718,-1.33295 l 2.88671,-1.08882 v -5.16891 c 9.99,20.66357 15.48885,49.62311 11.99636,90.6192 -3.55202,41.695 -1.65454,62.00026 -1.65454,62.00026 0,0 70.42321,-51.88279 76.43372,-136.12073 0.1845,-2.58813 2.63057,-5.68067 6.47863,-9.00497 h 10.02014 v -4.46762 -2.85183 c 21.12353,-13.63898 55.0179,-28.04179 55.0179,-28.04179 0,0 -35.48794,-5.95719 -41.16944,-51.5771 3.64776,-45.82699 38.83685,-53.35557 38.83685,-53.35557 0,0 -27.62833,-10.31496 -48.99654,-21.57469 v -6.76924 h -11.75992 c -7.21501,-4.63888 -12.236,-9.12285 -12.66271,-12.79454 C 400.71488,72.673967 328.05181,23.974218 328.05181,23.974218 Z m -47.7876,149.291059 c 3.59341,0 6.61546,0.77238 9.06696,2.31715 2.45152,1.51125 4.29832,3.66029 5.54091,6.44766 1.27619,2.75377 1.91421,5.99409 1.91421,9.72179 0,3.72761 -0.6381,6.98481 -1.91421,9.77217 -1.24259,2.75377 -3.10619,4.90281 -5.59128,6.44758 -2.45152,1.54485 -5.47357,2.32098 -9.06698,2.32098 -3.72764,0 -6.83367,-0.77613 -9.31878,-2.32098 -2.45158,-1.54477 -4.28157,-3.7106 -5.49057,-6.49797 -1.20894,-2.78736 -1.81335,-6.04448 -1.81335,-9.77217 0,-3.66053 0.60433,-6.86726 1.81335,-9.62108 1.209,-2.78736 3.03899,-4.95313 5.49057,-6.49798 2.48511,-1.54477 5.60795,-2.31715 9.36917,-2.31715 z m 39.94507,0.0526 c 3.79481,0 7.1023,0.70484 9.92327,2.11569 l -1.81343,3.82824 c -1.10824,-0.50386 -2.35061,-0.95706 -3.72748,-1.36009 -1.34337,-0.40265 -2.82081,-0.60435 -4.43275,-0.60435 -3.86201,0 -6.90084,1.29276 -9.11737,3.87865 -2.21646,2.58588 -3.32453,6.12846 -3.32453,10.62846 0,4.46649 1.02418,8.00907 3.07267,10.62853 2.08215,2.5859 5.1882,3.87865 9.31884,3.87865 1.54485,0 3.02227,-0.13053 4.43275,-0.39889 1.41048,-0.2692 2.80394,-0.60436 4.18089,-1.00746 v 3.92902 c -1.34336,0.50389 -2.73682,0.87317 -4.18089,1.10824 -1.41048,0.23469 -3.10619,0.35239 -5.08757,0.35239 -3.6605,0 -6.71616,-0.7555 -9.16774,-2.26668 -2.45153,-1.51124 -4.29838,-3.66419 -5.54091,-6.45155 -1.209,-2.78736 -1.81343,-6.06126 -1.81343,-9.82248 0,-3.627 0.6546,-6.81694 1.96452,-9.57071 1.34337,-2.78736 3.30773,-4.9532 5.89354,-6.49795 2.58588,-1.57844 5.72543,-2.36755 9.41962,-2.36755 z m -86.14007,0.50389 h 9.92327 c 4.46647,0 7.76109,0.85628 9.87676,2.56901 2.14928,1.67914 3.22383,4.23113 3.22383,7.6565 0,1.91427 -0.35242,3.50921 -1.05777,4.78538 -0.70557,1.27611 -1.61186,2.30029 -2.7201,3.07268 -1.07471,0.77239 -2.21637,1.36001 -3.42529,1.76304 l 9.87287,16.12288 h -5.28903 l -8.71824,-14.86357 h -7.15285 v 14.86357 h -4.53345 z m 102.51098,0 h 4.53345 v 15.21238 h 18.44003 v -15.21238 h 4.53353 v 35.96949 h -4.53353 v -16.7777 h -18.44003 v 16.7777 h -4.53345 z m 37.3295,0 h 20.09846 v 3.97941 h -15.56493 v 11.23297 h 14.65825 v 3.92902 h -14.65825 v 12.84485 h 15.56493 v 3.98324 h -20.09846 z m 28.00691,0 h 5.23864 l 19.19173,29.76987 h 0.2017 c -0.0375,-0.53763 -0.0855,-1.34315 -0.15137,-2.41786 -0.0375,-1.07463 -0.0847,-2.23309 -0.15137,-3.47568 -0.0375,-1.27611 -0.0526,-2.46817 -0.0526,-3.57639 v -20.29996 h 4.23127 v 35.96949 h -5.2891 l -19.2421,-29.87447 h -0.2017 c 0.0675,1.17541 0.15078,2.63613 0.25194,4.38236 0.10117,1.74631 0.15156,3.5428 0.15156,5.38982 v 20.10229 h -4.18081 z m -149.0935,1.76304 0.0599,0.045 c -0.0159,-0.008 -0.03,-0.006 -0.045,-0.0159 -0.008,-0.006 -0.006,-0.0224 -0.0159,-0.03 z m 27.44111,1.66225 c -4.09714,0 -7.1024,1.29276 -9.01659,3.87865 -1.91421,2.55229 -2.8712,6.09485 -2.8712,10.62854 0,4.53367 0.95699,8.10975 2.8712,10.72923 1.91419,2.58582 4.90273,3.87863 8.9662,3.87863 4.06353,0 7.03527,-1.29281 8.91589,-3.87863 1.91419,-2.61948 2.87117,-6.19556 2.87117,-10.72923 0,-4.53369 -0.94018,-8.07625 -2.82078,-10.62854 -1.88068,-2.58589 -4.85236,-3.87865 -8.91589,-3.87865 z m -41.66155,0.50389 v 13.34856 h 5.38982 c 2.92164,0 5.05779,-0.57061 6.40115,-1.71265 1.34329,-1.17533 2.01484,-2.88792 2.01484,-5.13796 0,-2.3508 -0.70859,-4.01284 -2.11951,-4.98679 -1.4104,-1.00743 -3.59311,-1.51116 -6.54836,-1.51116 z M 280.268,181.708 c 3.11698,0 4.31923,0.70033 5.30066,2.04977 h 0.0159 v 0.0159 c 1.13208,1.53644 1.949,4.06541 1.949,7.98207 0,3.90563 -0.81648,6.46887 -2.00711,8.09821 v 0.0159 c -0.98143,1.34952 -2.19919,2.03426 -5.31617,2.03426 -3.10678,0 -4.34481,-0.68609 -5.35885,-2.04977 v -0.0159 c -1.18733,-1.62964 -2.00711,-4.18381 -2.00711,-8.08278 0,-3.90563 0.82285,-6.4172 1.97614,-7.95493 l 0.0159,-0.0159 c 1.00835,-1.36226 2.27403,-2.07683 5.43239,-2.07683 z m -37.19783,0.51136 h 0.67408 c 2.44821,0 3.74127,0.52339 3.95227,0.67409 l 0.03,0.03 0.03,0.0159 c 0.03,0.0224 0.18966,-0.14106 0.18966,1.31743 0,1.33819 -0.21069,1.50016 -0.48439,1.73979 -0.14839,0.11705 -1.15763,0.64708 -3.46796,0.64708 h -0.92219 z m 56.74991,16.69643 c 0.11705,0.49636 0.18291,1.01697 0.24443,1.54213 -0.20019,0.23771 -0.39663,0.48889 -0.59685,0.72433 0.10059,-0.76391 0.17181,-1.54102 0.35242,-2.26668 z M 416.3771,232.8471 h 0.004 c 9.45965,-0.0526 16.83529,9.53448 14.33661,20.36966 -1.2507,5.42634 -4.65486,10.21 -8.80342,13.70893 -4.14866,3.49894 -9.06698,5.78969 -13.79426,5.81218 l -0.0299,-4.4676 c 3.22405,-0.0159 7.41528,-1.78675 10.93851,-4.75819 3.52322,-2.9715 6.36367,-7.07605 7.3388,-11.30658 1.95506,-8.47839 -3.51363,-14.93218 -9.9582,-14.89468 z m -95.54798,1.42981 c 4.06355,0 7.23675,1.27595 9.52032,3.82826 2.28363,2.51869 3.4253,5.96049 3.4253,10.32629 0,3.1231 -0.38617,6.06516 -1.15853,8.81893 -0.73858,2.75377 -1.86374,5.18825 -3.375,7.30393 -1.47758,2.08216 -3.32446,3.72755 -5.54091,4.93647 -2.21643,1.20902 -4.78515,1.81343 -7.70687,1.81343 -4.29862,0 -7.60613,-1.24243 -9.92335,-3.72754 -2.28364,-2.5187 -3.42531,-5.92691 -3.42531,-10.22553 0,-3.0896 0.4034,-6.03164 1.20894,-8.81901 0.83964,-2.78736 2.04842,-5.23856 3.62684,-7.35424 1.57829,-2.14936 3.49235,-3.82826 5.74239,-5.03726 2.25004,-1.24258 4.78522,-1.86373 7.60618,-1.86373 z m -30.1225,0.0526 c 1.88068,0 3.52599,0.1845 4.93647,0.55412 1.44407,0.36965 2.804,0.88995 4.08012,1.56155 l -1.71265,3.82826 c -0.87317,-0.47014 -1.96444,-0.90691 -3.27414,-1.30964 -1.30978,-0.43637 -2.65293,-0.65458 -4.0298,-0.65458 -2.08209,0 -3.7817,0.53761 -5.09146,1.61194 -1.3097,1.07465 -1.96452,2.58568 -1.96452,4.53345 0,1.04105 0.1845,1.89735 0.55412,2.56903 0.36965,0.67183 0.94026,1.29282 1.71264,1.86374 0.77239,0.57061 1.73326,1.19206 2.87509,1.86374 1.44406,0.87315 2.70329,1.72943 3.77794,2.56901 1.10822,0.83948 1.96443,1.81335 2.56893,2.92157 0.6381,1.10823 0.95707,2.48497 0.95707,4.1305 0,3.59333 -1.20886,6.31321 -3.62678,8.16031 -2.38441,1.84701 -5.57824,2.7743 -9.57453,2.7743 -1.74632,0 -3.29093,-0.13411 -4.63422,-0.40265 -1.30978,-0.26842 -2.55214,-0.67109 -3.72755,-1.20892 v -4.43267 c 1.00745,0.53761 2.19951,1.02416 3.57638,1.46077 1.41048,0.4364 3.02229,0.65086 4.83572,0.65086 1.51124,0 2.90476,-0.2347 4.18087,-0.70559 1.27619,-0.47012 2.30418,-1.19235 3.07657,-2.16598 0.77238,-0.97393 1.15861,-2.2331 1.15861,-3.77787 0,-1.34337 -0.45364,-2.48504 -1.3601,-3.4253 -0.87314,-0.97386 -2.40486,-2.082 -4.58773,-3.32459 -1.27619,-0.73858 -2.41785,-1.52791 -3.42529,-2.36747 -0.97387,-0.83957 -1.74617,-1.79656 -2.31707,-2.87119 -0.53764,-1.07463 -0.80598,-2.40097 -0.80598,-3.97941 0,-2.21646 0.53762,-4.09684 1.61187,-5.64167 1.07463,-1.57844 2.50175,-2.77049 4.28165,-3.57641 1.81343,-0.80605 3.79849,-1.20891 5.94777,-1.20891 z m 53.84774,0.50387 h 4.48306 l -4.6846,21.96603 c -0.16803,0.77246 -0.30218,1.57829 -0.40265,2.41785 -0.10118,0.83956 -0.15137,1.52797 -0.15137,2.06529 0,1.88062 0.57061,3.35811 1.71265,4.43274 1.17541,1.07465 2.9047,1.61189 5.18825,1.61189 2.98892,0 5.20513,-0.77231 6.64914,-2.31708 1.44405,-1.54485 2.50174,-3.81139 3.17344,-6.80029 l 4.98685,-23.37643 h 4.48697 l -5.04107,23.72906 c -0.53763,2.61948 -1.39354,4.88601 -2.56895,6.80022 -1.1418,1.91421 -2.68643,3.39171 -4.63421,4.43275 -1.9478,1.00753 -4.3823,1.51118 -7.30402,1.51118 -3.76123,0 -6.56507,-0.8563 -8.41209,-2.56901 -1.81342,-1.74633 -2.7201,-4.21434 -2.7201,-7.40464 0,-0.57061 0.0526,-1.25931 0.15137,-2.06529 0.10118,-0.8395 0.25194,-1.74617 0.45364,-2.7201 z m 34.50479,0 h 4.78921 l 11.03151,29.72331 h 0.15137 c 0.1343,-1.20892 0.36965,-2.73675 0.70556,-4.58384 0.33593,-1.88061 0.68833,-3.6642 1.05777,-5.34332 l 4.23129,-19.79615 h 4.28157 l -7.60611,35.96948 h -4.7854 l -11.13218,-29.82415 h -0.15137 c -0.0675,0.70557 -0.2047,1.62867 -0.40716,2.77047 -0.16803,1.14175 -0.38241,2.3842 -0.65083,3.72756 -0.23469,1.3097 -0.48663,2.56887 -0.7556,3.77787 l -4.13048,19.54825 h -4.23518 z m 32.91235,2.0575 c 3.7691,-0.0159 7.36318,1.45861 9.76828,4.23119 2.4051,2.77267 3.46541,6.83404 2.4024,11.34926 -2.12406,9.02432 -10.6544,14.40378 -18.13013,14.44128 l -0.03,-4.46763 c 5.24698,-0.0299 12.24536,-4.27326 13.82523,-10.985 0.78933,-3.35272 0.0299,-5.71793 -1.43754,-7.40853 -1.46649,-1.69061 -3.79347,-2.70796 -6.38565,-2.69296 z m -91.44462,1.36781 c -2.01499,0 -3.82826,0.50386 -5.4402,1.5111 -1.61197,0.97385 -2.9887,2.33386 -4.13051,4.08018 -1.14182,1.71272 -2.01491,3.72739 -2.61932,6.04463 -0.60435,2.28363 -0.90667,4.73874 -0.90667,7.35814 0,3.19038 0.7723,5.67528 2.31707,7.45512 1.54475,1.74631 3.67701,2.61932 6.39725,2.61932 2.01499,0 3.81138,-0.50389 5.38982,-1.51118 1.57835,-1.00744 2.9215,-2.38418 4.02972,-4.13051 1.10824,-1.7799 1.94772,-3.81137 2.51864,-6.095 0.60435,-2.28357 0.90667,-4.70508 0.90667,-7.25744 0,-3.19033 -0.75552,-5.65842 -2.26668,-7.40465 -1.51127,-1.77992 -3.57633,-2.66971 -6.19579,-2.66971 z m 87.99998,2.96807 h 0.004 c 2.45938,-0.008 5.04077,0.63283 7.04435,2.3403 2.00388,1.70733 3.1091,4.69197 2.3287,7.96656 -0.77816,3.26649 -2.91589,5.62794 -5.33163,7.04436 -2.41575,1.41661 -5.10728,2.00763 -7.51322,2.02261 l -0.03,-4.46761 c 1.66468,-0.008 3.69427,-0.4559 5.28906,-1.39106 1.59476,-0.93502 2.75855,-2.23024 3.23543,-4.23127 0.47465,-1.99279 0.0159,-2.80167 -0.87959,-3.56087 -0.89094,-0.75933 -2.52007,-1.26524 -4.13051,-1.25931 z m -112.48465,52.74716 c 1.62238,1.04928 3.23553,2.16006 4.83181,3.34777 -1.98918,1.70642 -3.59716,3.83643 -4.83181,6.2035 z m -101.83675,3.03779 c 3.59327,0 6.61538,0.77621 9.06698,2.32098 2.45152,1.51118 4.2983,3.66023 5.54091,6.44764 1.27609,2.75377 1.91411,5.99417 1.91411,9.7218 0,3.7277 -0.63808,6.98482 -1.91411,9.77217 -1.24261,2.75385 -3.10627,4.90289 -5.5913,6.44766 -2.45158,1.54476 -5.47363,2.31706 -9.06698,2.31706 -3.7277,0 -6.83373,-0.7723 -9.31884,-2.31706 -2.45152,-1.54477 -4.28151,-3.71069 -5.49051,-6.49805 -1.209,-2.78735 -1.81343,-6.04447 -1.81343,-9.77217 0,-3.66044 0.60435,-6.86725 1.81343,-9.62102 1.209,-2.78735 3.03899,-4.95326 5.49051,-6.49803 2.48511,-1.54477 5.60795,-2.32098 9.36923,-2.32098 z m -30.22321,0.0526 c 3.79481,0 7.10232,0.70483 9.92326,2.11561 l -1.81342,3.82824 c -1.10822,-0.50386 -2.35067,-0.95698 -3.72748,-1.36001 -1.34337,-0.40265 -2.82079,-0.60435 -4.43275,-0.60435 -3.86207,0 -6.90481,1.29276 -9.12124,3.87873 -2.21646,2.58581 -3.32453,6.12837 -3.32453,10.62846 0,4.46649 1.02416,8.00907 3.07265,10.62847 2.08217,2.58587 5.19208,3.87871 9.32273,3.87871 1.54477,0 3.02221,-0.13431 4.43277,-0.40265 1.4104,-0.26844 2.80392,-0.60435 4.18087,-1.00745 v 3.92902 c -1.34337,0.50388 -2.73688,0.87316 -4.18087,1.10823 -1.41056,0.2347 -3.10627,0.35242 -5.08757,0.35242 -3.66053,0 -6.72005,-0.75552 -9.17165,-2.26668 -2.45151,-1.51127 -4.2983,-3.66031 -5.54089,-6.44766 -1.20894,-2.78736 -1.81337,-6.06128 -1.81337,-9.82257 0,-3.62693 0.6546,-6.81694 1.96452,-9.57071 1.34329,-2.78735 3.30765,-4.95312 5.89346,-6.49797 2.5859,-1.57835 5.7294,-2.36746 9.42351,-2.36746 z m 150.96885,0 c 3.79481,0 7.1024,0.70483 9.92326,2.11561 l -1.81343,3.82824 c -1.10821,-0.50386 -2.35058,-0.95698 -3.72746,-1.36001 -1.34336,-0.40265 -2.8208,-0.60435 -4.43276,-0.60435 -3.86199,0 -6.90084,1.29276 -9.11736,3.87873 -2.21645,2.58581 -3.32453,6.12837 -3.32453,10.62846 0,4.46649 1.02418,8.00907 3.07266,10.62847 2.08217,2.58587 5.18819,3.87871 9.31886,3.87871 1.54483,0 3.02226,-0.13431 4.43274,-0.40265 1.41047,-0.26844 2.804,-0.60435 4.18088,-1.00745 v 3.92902 c -1.34329,0.50388 -2.73681,0.87316 -4.18088,1.10823 -1.41048,0.2347 -3.10618,0.35242 -5.08757,0.35242 -3.66052,0 -6.71615,-0.75552 -9.16774,-2.26668 -2.45152,-1.51127 -4.2984,-3.66031 -5.5409,-6.44766 -1.209,-2.78736 -1.81343,-6.06128 -1.81343,-9.82257 0,-3.62693 0.65458,-6.81694 1.96452,-9.57071 1.34337,-2.78735 3.30773,-4.95312 5.89352,-6.49797 2.58589,-1.57835 5.72545,-2.36746 9.41962,-2.36746 z m -96.26488,0.50014 h 4.53353 v 31.93976 h 15.71603 v 4.02972 h -20.24956 z m 26.39495,0 h 4.53353 v 31.93976 h 15.71993 v 4.02972 h -20.25346 z m 26.39886,0 h 20.09838 v 3.98324 h -15.56493 v 11.23296 h 14.65826 v 3.92902 h -14.65826 v 12.84493 h 15.56493 v 3.97933 h -20.09838 z m 55.45963,0 h 26.95288 v 3.98324 h -11.18646 v 31.98615 h -4.53345 v -31.98625 h -11.23297 z m 29.52183,0 h 12.996 v 2.61932 l -4.23128,1.01134 v 28.76244 l 4.23128,0.95706 v 2.61932 h -12.996 v -2.61932 l 4.23127,-0.95708 v -28.7625 l -4.23127,-1.01136 z m 15.06129,0 h 4.73493 l 8.10992,23.07426 c 0.53761,1.47766 0.97384,2.87118 1.3097,4.18088 0.36965,1.27611 0.68832,2.50175 0.95706,3.67717 0.23469,-1.17542 0.53686,-2.41778 0.90667,-3.72756 0.36966,-1.3097 0.8227,-2.72002 1.36002,-4.23119 l 8.05952,-22.97356 h 4.78539 l -12.84491,35.96948 h -4.53345 z m 35.10929,0 h 20.09841 v 3.98324 h -15.56496 v 11.23296 h 14.65828 v 3.92902 h -14.65828 v 12.84493 h 15.56496 v 3.97933 h -20.09841 z m -212.42661,3.4292 c -4.09714,0 -7.10246,1.29276 -9.01659,3.87863 -1.91427,2.55222 -2.87126,6.0948 -2.87126,10.62847 0,4.53367 0.95699,8.10984 2.87126,10.72924 1.91413,2.58589 4.90265,3.87865 8.9662,3.87865 4.06347,0 7.03521,-1.29276 8.91581,-3.87865 1.91429,-2.6194 2.87127,-6.19557 2.87127,-10.72924 0,-4.53367 -0.94026,-8.07625 -2.82088,-10.62847 -1.8806,-2.58587 -4.85234,-3.87863 -8.91581,-3.87863 z m 12.5039,1.22826 0.0159,0.03 c -0.002,-0.004 -0.0159,0.004 -0.0159,0 -0.006,-0.008 0.006,-0.0224 0,-0.03 z m -12.50779,3.23936 c 3.1169,0 4.33475,0.68458 5.31617,2.03424 v 0.0159 l 0.0159,0.0159 c 1.13215,1.53644 1.94899,4.06152 1.94899,7.97817 0,3.90571 -0.81647,6.47285 -2.00709,8.10212 h -0.0159 c -0.9815,1.34951 -2.18375,2.04976 -5.30065,2.04976 -3.09944,0 -4.35006,-0.70781 -5.36276,-2.0652 -1.18733,-1.62972 -2.01872,-4.18764 -2.01872,-8.08668 0,-3.90564 0.82284,-6.41338 1.97613,-7.95103 l 0.0159,-0.0159 v -0.0159 c 1.00835,-1.3622 2.27405,-2.06132 5.43241,-2.06132 z m -30.26971,0.045 c 1.24012,0 2.27345,0.16426 3.1463,0.42588 h 0.0159 0.0159 c 1.20563,0.35317 2.25214,0.73782 3.13475,1.1392 l 3.99876,1.81724 0.15891,-0.32167 c -0.52863,2.2556 -1.33287,4.37621 -1.33287,6.88158 0,2.8969 0.80567,5.40068 1.49564,7.95491 l -3.32459,0.96486 c -1.23885,0.36292 -2.49306,0.6651 -3.76235,0.90668 -1.11653,0.2122 -2.30176,0.32544 -3.58807,0.32544 -3.18289,0 -4.65651,-0.75223 -5.83153,-2.20094 -1.28167,-1.64974 -2.10789,-4.07688 -2.10789,-7.84636 0,-3.76744 0.87114,-6.10385 2.25516,-7.71858 1.3831,-1.61361 2.86076,-2.3287 5.72691,-2.3287 z m 116.54151,0.51136 h 14.72027 c -0.26693,0.71833 -0.28492,1.55136 -0.48436,2.30162 h -14.23591 z m 30.61453,0.24444 c 4.80213,4.9136 9.29741,10.66873 13.26339,17.47906 l -2.1389,0.62385 c -1.2387,0.36291 -2.49698,0.66508 -3.76625,0.90668 -1.11655,0.21219 -2.31332,0.32166 -3.59971,0.32166 -3.18289,0 -4.64106,-0.74455 -5.81601,-2.19312 -1.28173,-1.64974 -2.10788,-4.08079 -2.10788,-7.85027 0,-3.76743 0.87106,-6.10377 2.25514,-7.71849 0.58487,-0.68234 1.1934,-1.19438 1.91022,-1.56929 z m -30.61453,14.91396 h 13.80971 c 0.23618,1.31375 0.31943,2.70427 0.73257,3.92511 h -14.54198 z" />
  </g>
</svg>
